<mxfile host="app.diagrams.net" modified="2022-08-06T17:24:25.637Z" agent="5.0 (Windows NT 10.0; Win64; x64) AppleWebKit/537.36 (KHTML, like Gecko) Chrome/103.0.0.0 Safari/537.36" etag="1q5Qq8OGgHhDUiC91cB9" version="20.2.3" type="github">
  <diagram id="jgJsiOe8lLUQANg5dAEC" name="Seite-1">
    <mxGraphModel dx="1010" dy="517" grid="1" gridSize="10" guides="1" tooltips="1" connect="1" arrows="1" fold="1" page="1" pageScale="1" pageWidth="827" pageHeight="1169" math="1" shadow="0">
      <root>
        <mxCell id="0" />
        <mxCell id="1" parent="0" />
        <mxCell id="3jizRwobI20rwd0ZOp-3-1" value="hjgjhgjh" style="image;html=1;image=img/lib/clip_art/finance/Pie_Chart_128x128.png" vertex="1" parent="1">
          <mxGeometry x="370" y="230" width="370" height="190" as="geometry" />
        </mxCell>
      </root>
    </mxGraphModel>
  </diagram>
</mxfile>
